<svg width="52" height="66" viewBox="0 0 52 66" fill="none" xmlns="http://www.w3.org/2000/svg">
<path d="M47 4C49.7614 4 52 6.23858 52 9V61C52 63.7614 49.7614 66 47 66H14C11.2386 66 9 63.7614 9 61V59.2188H9.00586C9.12039 61.8787 11.3119 64 14 64H45C47.7614 64 50 61.7614 50 59V17C50 14.3432 47.9278 12.1716 45.3115 12.0107V6.09375C45.3115 5.34595 45.1458 4.63704 44.8516 4H47Z" fill="black"/>
<path d="M34 0C36.7614 0 39 2.23858 39 5V11H13C10.2386 11 8 13.2386 8 16V57H5C2.23858 57 0 54.7614 0 52V5C7.73133e-07 2.23858 2.23858 2.57703e-07 5 0H34Z" fill="black"/>
<path d="M19 51V49.9949C20.7866 49.9949 21.8288 49.6758 22.1266 49.0376V24.9624C21.8288 24.3242 20.7866 24.0051 19 24.0051V23H39V27.6427H37.9578C37.9578 25.9197 37.627 24.9145 36.9653 24.6274H26.6923V35.6359H33.6402C34.3019 35.3487 34.6328 34.3436 34.6328 32.6205H35.6749V40.2786H34.6328C34.6328 38.5556 34.3019 37.5504 33.6402 37.2632H26.6923V49.0376C26.9901 49.6758 28.0323 49.9949 29.8189 49.9949V51H19Z" fill="black"/>
</svg>
